<?xml version="1.0" standalone="no"?>
<!DOCTYPE svg PUBLIC "-//W3C//DTD SVG 20010904//EN"
 "http://www.w3.org/TR/2001/REC-SVG-20010904/DTD/svg10.dtd">
<svg version="1.0" xmlns="http://www.w3.org/2000/svg"
 width="358.000000pt" height="358.000000pt" viewBox="0 0 358.000000 358.000000"
 preserveAspectRatio="xMidYMid meet">
<metadata>
Created by potrace 1.11, written by Peter Selinger 2001-2013
</metadata>
<g transform="translate(0.000000,358.000000) scale(0.100000,-0.100000)"
fill="#000000" stroke="none">
<path d="M1382 3271 c-5 -3 -10 -66 -10 -140 -1 -74 -5 -138 -9 -142 -4 -4
-31 -10 -60 -13 -28 -3 -82 -13 -120 -22 -37 -9 -77 -17 -88 -18 -11 -1 -26
-5 -33 -9 -7 -5 -24 -11 -39 -13 -14 -3 -49 -16 -77 -28 -28 -13 -85 -39 -126
-57 -41 -18 -100 -47 -132 -65 -31 -18 -59 -30 -62 -26 -3 3 -6 1 -6 -5 0 -6
-24 -22 -52 -37 -29 -14 -64 -35 -78 -46 -14 -11 -73 -56 -132 -99 -59 -43
-104 -81 -101 -85 4 -3 1 -6 -5 -6 -11 0 -48 -29 -89 -69 -17 -17 -12 -45 24
-121 15 -30 27 -57 28 -60 3 -11 42 -75 82 -136 24 -35 41 -64 38 -64 -3 0 2
-8 9 -17 165 -204 207 -250 287 -316 63 -51 84 -68 107 -88 12 -10 27 -19 32
-19 6 0 10 -3 10 -8 0 -4 17 -15 38 -25 20 -10 48 -24 62 -32 50 -29 157 -75
191 -81 19 -4 40 -11 47 -17 7 -5 15 -7 19 -4 3 4 13 2 23 -3 9 -5 30 -12 46
-14 16 -3 44 -10 62 -15 18 -6 39 -8 45 -5 18 7 57 -33 58 -59 0 -12 2 -62 2
-112 l2 -90 1028 0 1027 -1 1 26 c0 32 0 2121 0 2136 -1 11 -2032 16 -2049 5z
m298 -301 c125 -26 296 -79 309 -96 3 -5 11 -9 16 -10 22 -1 65 -17 65 -23 0
-4 6 -8 14 -8 17 0 178 -95 231 -137 22 -18 51 -39 65 -48 48 -30 253 -228
273 -263 7 -14 -83 -117 -182 -209 -25 -23 -53 -49 -63 -58 -10 -10 -22 -18
-28 -18 -5 0 -10 -4 -10 -9 0 -14 -186 -151 -294 -216 -88 -52 -151 -83 -261
-125 -11 -4 -38 -12 -60 -18 -22 -6 -59 -15 -81 -21 -45 -12 -185 -15 -257 -5
l-45 6 1 67 1 66 140 0 c125 0 147 3 196 23 102 44 177 84 229 123 28 21 51
37 51 35 0 -16 219 199 283 277 39 49 45 62 36 78 -12 23 -117 128 -178 179
-24 19 -48 40 -54 45 -7 6 -34 25 -62 42 -27 18 -55 36 -60 41 -17 14 -180 88
-180 82 0 -1 -13 4 -30 10 -74 29 -148 43 -250 46 -60 1 -113 3 -117 3 -5 1
-8 33 -8 71 0 63 2 71 21 79 30 11 222 5 289 -9z m-310 -245 c0 -52 -1 -95 -3
-95 -40 0 -244 -53 -282 -74 -11 -6 -34 -15 -50 -21 -28 -10 -56 -27 -190
-114 -39 -25 -115 -97 -115 -108 0 -3 16 -44 37 -91 68 -159 169 -289 296
-381 63 -46 172 -101 199 -101 9 0 19 -4 22 -9 3 -4 24 -11 46 -15 l40 -6 0
-89 c0 -67 3 -90 14 -94 23 -9 238 -6 296 4 177 31 273 56 355 90 17 6 35 13
42 15 20 4 207 100 254 130 24 16 52 33 61 39 10 5 45 29 78 53 33 23 65 42
69 42 5 0 11 3 13 8 2 6 65 58 182 152 10 8 29 25 42 38 28 27 38 27 72 3 15
-10 52 -32 82 -48 120 -64 234 -133 242 -146 7 -11 -12 -48 -22 -42 -4 2 -17
-6 -31 -18 -13 -13 -51 -38 -84 -57 -33 -19 -61 -37 -63 -42 -2 -4 -8 -8 -12
-8 -5 0 -55 -22 -112 -49 -131 -62 -244 -110 -266 -114 -9 -2 -33 -10 -52 -18
-19 -9 -62 -23 -95 -33 -33 -10 -83 -26 -111 -36 -29 -11 -54 -16 -58 -13 -3
3 -11 1 -18 -4 -13 -10 -32 -15 -108 -28 -19 -4 -44 -10 -55 -15 -11 -5 -31
-11 -45 -13 -14 -3 -36 -8 -50 -11 -14 -3 -49 -8 -79 -11 -30 -3 -57 -8 -61
-10 -4 -3 -25 -7 -46 -11 -22 -3 -50 -8 -64 -10 -34 -7 -342 -13 -357 -7 -9 4
-13 31 -13 88 l0 83 -57 11 c-32 6 -62 13 -68 14 -5 2 -35 11 -66 21 -31 9
-64 23 -75 31 -10 8 -27 15 -36 15 -10 0 -18 5 -18 10 0 6 -6 10 -13 10 -42 0
-250 179 -323 277 -16 21 -31 40 -34 43 -5 5 -39 57 -76 115 -10 17 -17 33
-16 38 1 4 -2 7 -6 7 -7 0 -36 58 -85 172 -12 26 -14 45 -8 60 10 25 151 171
196 203 16 11 34 26 41 33 7 6 17 12 21 12 5 0 18 8 29 18 11 9 31 23 44 31
79 46 110 61 110 55 0 -4 9 1 21 12 12 10 24 18 28 17 3 0 22 6 41 14 52 22
229 65 240 58 6 -3 10 -1 10 4 0 6 21 11 50 11 l50 0 0 -95z m212 -100 c133
-14 323 -119 422 -233 18 -21 18 -22 -15 -52 -56 -52 -82 -73 -139 -120 -30
-25 -61 -51 -68 -57 -26 -25 -41 -12 -106 88 -37 55 -77 110 -91 123 -28 26
-96 61 -140 72 -16 4 -33 8 -37 9 -5 2 -15 3 -23 4 -12 1 -15 17 -15 81 0 44
1 80 3 81 1 0 22 3 47 5 25 3 47 7 49 9 2 3 18 2 35 0 17 -3 52 -7 78 -10z
m-212 -460 l0 -295 -27 6 c-16 4 -29 11 -31 16 -2 4 -10 8 -18 8 -8 0 -17 6
-20 14 -3 8 -15 17 -27 20 -63 16 -179 171 -229 304 l-20 55 48 43 c26 24 54
44 60 44 7 0 14 4 16 8 4 9 104 58 133 65 11 3 41 5 68 6 l47 1 0 -295z"/>
<path d="M459 908 c-43 -26 -50 -50 -51 -171 -2 -115 4 -138 42 -172 21 -19
62 -22 278 -25 29 0 33 -4 39 -32 9 -42 8 -67 -1 -95 -8 -26 2 -25 -213 -23
-147 1 -141 5 -134 -77 l3 -43 200 0 c276 0 282 4 280 205 0 122 -13 164 -55
187 -14 7 -72 12 -155 13 -86 1 -136 5 -144 13 -17 17 -17 84 0 104 13 15 34
18 151 17 75 0 146 0 159 0 20 1 22 6 22 59 l0 57 -196 0 c-168 0 -200 -2
-225 -17z"/>
<path d="M1070 914 c-56 -24 -60 -47 -60 -325 l0 -251 34 -34 34 -34 184 0
184 0 2 59 1 59 -146 0 c-87 0 -149 4 -156 11 -6 6 -10 80 -9 198 0 164 2 189
17 200 12 8 58 12 144 12 69 -1 132 0 138 0 9 1 12 19 10 58 l-2 58 -173 0
c-114 1 -183 -3 -202 -11z"/>
<path d="M1739 928 c0 -2 -2 -10 -4 -18 -3 -13 -46 -128 -206 -553 -16 -43
-29 -81 -29 -83 0 -3 30 -4 66 -2 l67 3 21 60 21 60 125 0 125 0 21 -60 21
-60 72 -3 c39 -2 71 1 71 5 0 5 -53 152 -118 328 l-119 320 -66 3 c-37 1 -67
1 -68 0z m105 -306 c21 -57 36 -105 34 -108 -7 -6 -148 -7 -154 -1 -4 3 11 55
32 116 22 60 42 107 45 103 3 -4 23 -53 43 -110z"/>
<path d="M2185 922 c-3 -3 -5 -151 -5 -329 l0 -323 209 0 209 0 0 42 c2 81 8
78 -149 78 l-139 0 -1 28 c0 15 0 134 1 265 0 130 -3 238 -7 238 -28 4 -114 5
-118 1z"/>
<path d="M2692 920 c-4 -3 -8 -149 -7 -325 l0 -320 63 -3 c54 -3 62 -1 63 15
0 10 1 70 2 133 l2 115 125 0 c155 1 179 7 208 48 20 30 22 45 22 146 0 97 -3
118 -20 147 -12 18 -31 36 -43 40 -25 9 -404 13 -415 4z m332 -123 c19 -14 25
-112 7 -130 -6 -6 -51 -11 -113 -11 l-103 -1 -3 76 -2 76 99 1 c60 0 106 -4
115 -11z"/>
</g>
</svg>
